<svg version="1.1" xmlns="http://www.w3.org/2000/svg" viewBox="0 0 610.9153594970703 244.9283447265625" width="610.9153594970703" height="244.9283447265625">
  <!-- svg-source:excalidraw -->
  
  <defs>
    <style class="style-fonts">
      @font-face {
        font-family: "Virgil";
        src: url("https://excalidraw.com/Virgil.woff2");
      }
      @font-face {
        font-family: "Cascadia";
        src: url("https://excalidraw.com/Cascadia.woff2");
      }
      @font-face {
        font-family: "Assistant";
        src: url("https://excalidraw.com/Assistant-Regular.woff2");
      }
    </style>
    
  </defs>
  <g stroke-linecap="round"><g transform="translate(66.71087646484375 35.13081359863281) rotate(0 85.61553955078125 -1.14410400390625)"><path d="M-0.31 0.54 C28.31 0.08, 142.2 -2.22, 170.89 -2.52 M1.73 -0.22 C30.23 -0.52, 141.49 -0.64, 169.76 -1.11" stroke="#1e1e1e" stroke-width="2" fill="none"></path></g></g><mask></mask><g transform="translate(10 10) rotate(0 20.659988403320312 25)"><text x="0" y="0" font-family="Virgil, Segoe UI Emoji" font-size="20px" fill="#1e1e1e" text-anchor="start" style="white-space: pre;" direction="ltr" dominant-baseline="text-before-edge">RBP</text><text x="0" y="25" font-family="Virgil, Segoe UI Emoji" font-size="20px" fill="#1e1e1e" text-anchor="start" style="white-space: pre;" direction="ltr" dominant-baseline="text-before-edge">RSP</text></g><g transform="translate(251.07574462890625 21.9669189453125) rotate(0 35.84998321533203 12.5)"><text x="0" y="0" font-family="Virgil, Segoe UI Emoji" font-size="20px" fill="#1e1e1e" text-anchor="start" style="white-space: pre;" direction="ltr" dominant-baseline="text-before-edge">0x1000</text></g><g stroke-linecap="round" transform="translate(363.76806640625 27.313308715820312) rotate(0 91.92047119140625 95.10913848876953)"><path d="M32 0 C79.32 0.85, 127.97 0.23, 151.84 0 M32 0 C78.55 -1.18, 126.27 -0.61, 151.84 0 M151.84 0 C172.29 -1.82, 182.08 8.76, 183.84 32 M151.84 0 C172.84 -0.63, 182.42 9.3, 183.84 32 M183.84 32 C184.55 59.06, 185.07 84.65, 183.84 158.22 M183.84 32 C184.36 59.93, 184.85 89.2, 183.84 158.22 M183.84 158.22 C184.46 179.78, 173.7 190.59, 151.84 190.22 M183.84 158.22 C182.76 180.19, 172.44 188.91, 151.84 190.22 M151.84 190.22 C116.73 190.12, 83 190.58, 32 190.22 M151.84 190.22 C116.33 191.34, 79.25 190.41, 32 190.22 M32 190.22 C11.11 190.38, -1.6 178.97, 0 158.22 M32 190.22 C9.31 188.21, -0.81 178.05, 0 158.22 M0 158.22 C1.55 132.78, 1.14 104.48, 0 32 M0 158.22 C0.02 129.91, 0.21 103.13, 0 32 M0 32 C-1.61 9.5, 12.28 -1.67, 32 0 M0 32 C0.99 9.14, 11.51 -1.98, 32 0" stroke="#1e1e1e" stroke-width="2" fill="none"></path></g><g stroke-linecap="round"><g transform="translate(370.99356621615595 69.8929468918592) rotate(0 85.61553955078125 -1.14410400390625)"><path d="M0.82 0.45 C29.16 -0.07, 142.14 -2.03, 170.63 -2.55 M-0.21 -0.37 C28.47 -0.74, 144.45 -0.95, 173.03 -1.15" stroke="#1e1e1e" stroke-width="2" fill="none"></path></g></g><mask></mask><g stroke-linecap="round"><g transform="translate(369.8582129703276 118.00186981447041) rotate(0 85.61553955078125 -1.14410400390625)"><path d="M0.59 0.06 C29.04 -0.39, 141.88 -2.38, 170.33 -2.65 M-0.56 -0.96 C28.3 -1.23, 144.06 -0.88, 172.56 -1.3" stroke="#1e1e1e" stroke-width="2" fill="none"></path></g></g><mask></mask><g stroke-linecap="round"><g transform="translate(370.5910054243915 172.1634984780103) rotate(0 85.61553955078125 -1.14410400390625)"><path d="M-0.48 0.08 C28.12 -0.31, 141.74 -0.76, 170.54 -1.22 M1.47 -0.92 C30.56 -1.11, 144.45 -2.67, 172.89 -2.79" stroke="#1e1e1e" stroke-width="2" fill="none"></path></g></g><mask></mask><g transform="translate(558.6627197265625 22.959457397460938) rotate(0 20.659988403320312 12.5)"><text x="0" y="0" font-family="Virgil, Segoe UI Emoji" font-size="20px" fill="#1e1e1e" text-anchor="start" style="white-space: pre;" direction="ltr" dominant-baseline="text-before-edge">RBP</text></g><g transform="translate(561.9753875732422 209.9283447265625) rotate(0 19.469985961914062 12.5)"><text x="0" y="0" font-family="Virgil, Segoe UI Emoji" font-size="20px" fill="#1e1e1e" text-anchor="start" style="white-space: pre;" direction="ltr" dominant-baseline="text-before-edge">RSP</text></g><g transform="translate(256.39105224609375 200.14810180664062) rotate(0 35.97997283935547 12.5)"><text x="0" y="0" font-family="Virgil, Segoe UI Emoji" font-size="20px" fill="#1e1e1e" text-anchor="start" style="white-space: pre;" direction="ltr" dominant-baseline="text-before-edge">0x0ff0</text></g><g transform="translate(398.5356140136719 38.32461976183299) rotate(0 57.710052490234375 8.514827259651383)"><text x="0" y="0" font-family="Virgil, Segoe UI Emoji" font-size="13.623723615442227px" fill="#1e1e1e" text-anchor="start" style="white-space: pre;" direction="ltr" dominant-baseline="text-before-edge">Load delay value</text></g><g transform="translate(409.4571762084961 84.91376160753612) rotate(0 41.976783752441406 8.514827259651398)"><text x="0" y="0" font-family="Virgil, Segoe UI Emoji" font-size="13.623723615442227px" fill="#1e1e1e" text-anchor="start" style="white-space: pre;" direction="ltr" dominant-baseline="text-before-edge">32-bit value</text></g><g transform="translate(410.55233001708984 137.99542664659862) rotate(0 41.976783752441406 8.514827259651383)"><text x="0" y="0" font-family="Virgil, Segoe UI Emoji" font-size="13.623723615442227px" fill="#1e1e1e" text-anchor="start" style="white-space: pre;" direction="ltr" dominant-baseline="text-before-edge">32-bit value</text></g><g transform="translate(410.6412582397461 188.69049500597362) rotate(0 41.976783752441406 8.514827259651383)"><text x="0" y="0" font-family="Virgil, Segoe UI Emoji" font-size="13.623723615442227px" fill="#1e1e1e" text-anchor="start" style="white-space: pre;" direction="ltr" dominant-baseline="text-before-edge">32-bit value</text></g><g mask="url(#mask-Z4LkNEgN905_Iora0Wn5J)" stroke-linecap="round"><g transform="translate(286.997802734375 64.99942016601562) rotate(0 -0.062469482421875 60.57771301269531)"><path d="M-1.08 -1.08 C-1.18 18.98, 0.25 100.96, 0.56 121.48 M0.56 0.97 C0.26 21.17, -0.01 99.66, -0.03 119.53" stroke="#1e1e1e" stroke-width="2" fill="none"></path></g><g transform="translate(286.997802734375 64.99942016601562) rotate(0 -0.062469482421875 60.57771301269531)"><path d="M-8.52 96.02 C-6.76 106.51, -1.06 116.09, -0.03 119.53 M-8.52 96.02 C-5.24 105.31, -1.8 113.39, -0.03 119.53" stroke="#1e1e1e" stroke-width="2" fill="none"></path></g><g transform="translate(286.997802734375 64.99942016601562) rotate(0 -0.062469482421875 60.57771301269531)"><path d="M8.58 96.06 C3.59 106.38, 2.54 115.95, -0.03 119.53 M8.58 96.06 C5.47 105.42, 2.52 113.48, -0.03 119.53" stroke="#1e1e1e" stroke-width="2" fill="none"></path></g></g><mask id="mask-Z4LkNEgN905_Iora0Wn5J"><rect x="0" y="0" fill="#fff" width="387.12274169921875" height="286.15484619140625"></rect><rect x="246.50537109375" y="113.07713317871094" fill="#000" width="80.85992431640625" height="25" opacity="1"></rect></mask><g transform="translate(246.50537109375 113.07713317871094) rotate(0 40.22891240761584 12.122721122577786)"><text x="40.429962158203125" y="0" font-family="Virgil, Segoe UI Emoji" font-size="20px" fill="#1e1e1e" text-anchor="middle" style="white-space: pre;" direction="ltr" dominant-baseline="text-before-edge">16 bytes</text></g></svg>